<svg width="1161" height="1161" viewBox="0 0 1161 1161" fill="none" xmlns="http://www.w3.org/2000/svg">
<path d="M293.074 870.767C439.639 1015.49 673.724 1016.97 817.062 873.63C960.97 729.722 958.912 494.343 812.466 347.897C666.019 201.45 430.64 199.392 286.732 343.3C143.386 486.646 144.868 720.75 289.619 867.314L289.455 867.148C130.82 706.502 130.813 448.307 289.914 289.207C449.638 129.482 709.236 130.115 869.741 290.621C1030.25 451.126 1030.88 710.724 871.156 870.448C712.009 1029.6 453.71 1029.54 293.074 870.767Z" fill="#31B0B0"/>
<path d="M293.129 870.834C412.813 988.962 605.598 988.48 724.689 869.39C844.262 749.817 844.262 555.952 724.69 436.38C605.118 316.808 411.253 316.808 291.68 436.381C172.574 555.487 172.107 748.306 290.281 867.987L290.162 867.867C161.83 737.899 162.336 528.507 291.68 399.164C421.53 269.313 632.058 269.313 761.908 399.162C891.757 529.011 891.756 739.539 761.906 869.39C632.562 998.733 423.17 999.239 293.203 870.908L293.129 870.834Z" fill="#40DBDB"/>
<path d="M683.065 869.034C578.206 973.893 410.194 977.107 301.463 878.677C402.55 969.846 558.48 966.749 655.842 869.388C756.402 768.828 756.402 605.788 655.842 505.228C555.282 404.668 392.242 404.668 291.682 505.228C191.184 605.726 191.122 768.626 291.497 869.201C291.441 869.145 291.384 869.09 291.328 869.034C183.153 760.859 183.153 585.472 291.328 477.297C399.503 369.122 574.89 369.122 683.065 477.297C791.24 585.472 791.24 760.859 683.065 869.034Z" fill="#82EBEB"/>
<path d="M633.568 873.277C539.842 967.003 387.882 967.003 294.157 873.277C200.431 779.551 200.431 627.591 294.157 533.866C387.882 440.14 539.842 440.14 633.568 533.866C727.294 627.591 727.294 779.551 633.568 873.277ZM629.325 830.85C712.116 748.059 712.116 613.828 629.325 531.037C546.534 448.246 412.303 448.246 329.512 531.037C246.721 613.828 246.721 748.059 329.512 830.85C412.303 913.642 546.534 913.642 629.325 830.85Z" fill="#31B0B0"/>
<path d="M633.214 785.949C563.896 855.267 451.509 855.267 382.191 785.949C312.873 716.631 312.873 604.244 382.191 534.926C438.66 478.458 523.708 467.992 590.773 503.525C537.459 477.59 471.37 486.76 427.093 531.037C371.248 586.882 371.248 677.425 427.093 733.27C482.937 789.115 573.48 789.115 629.325 733.27C684.556 678.039 685.162 588.871 631.145 532.893C631.839 533.565 632.529 534.241 633.214 534.926C702.532 604.244 702.532 716.631 633.214 785.949Z" fill="#248888"/>
<path d="M629.679 690.49C585.745 734.424 514.514 734.424 470.58 690.49C426.646 646.556 426.646 575.325 470.58 531.391C513.484 488.486 582.421 487.481 626.546 528.374L627.069 528.865C595.3 499.422 545.665 500.146 514.774 531.037C483.141 562.67 483.141 613.956 514.774 645.588C546.406 677.221 597.693 677.221 629.325 645.588C660.901 614.013 660.957 562.854 629.495 531.208C629.556 531.269 629.618 531.33 629.679 531.391C673.613 575.325 673.613 646.556 629.679 690.49Z" fill="#176161"/>
<path d="M629.679 611.294C607.614 633.358 571.84 633.358 549.776 611.294C527.711 589.229 527.711 553.455 549.776 531.391C571.84 509.326 607.614 509.326 629.679 531.391C651.743 553.455 651.743 589.229 629.679 611.294ZM629.679 584.424C644.323 569.779 644.323 546.035 629.679 531.391C615.034 516.746 591.29 516.746 576.646 531.391C562.001 546.035 562.001 569.779 576.646 584.424C591.29 599.068 615.034 599.068 629.679 584.424Z" fill="#0B3D3D"/>
<circle cx="613.769" cy="547.301" r="22.5" transform="rotate(135 613.769 547.301)" fill="#031C1C"/>
<g filter="url(#filter0_d_24_145)">
<ellipse cx="170.5" cy="65" rx="170.5" ry="65" transform="matrix(0.707107 -0.707107 -0.707107 -0.707107 384.666 867.62)" fill="url(#paint0_linear_24_145)"/>
</g>
<defs>
<filter id="filter0_d_24_145" x="326.205" y="572.036" width="266.121" height="266.121" filterUnits="userSpaceOnUse" color-interpolation-filters="sRGB">
<feFlood flood-opacity="0" result="BackgroundImageFix"/>
<feColorMatrix in="SourceAlpha" type="matrix" values="0 0 0 0 0 0 0 0 0 0 0 0 0 0 0 0 0 0 127 0" result="hardAlpha"/>
<feOffset dy="4"/>
<feGaussianBlur stdDeviation="2"/>
<feComposite in2="hardAlpha" operator="out"/>
<feColorMatrix type="matrix" values="0 0 0 0 0 0 0 0 0 0 0 0 0 0 0 0 0 0 0.25 0"/>
<feBlend mode="normal" in2="BackgroundImageFix" result="effect1_dropShadow_24_145"/>
<feBlend mode="normal" in="SourceGraphic" in2="effect1_dropShadow_24_145" result="shape"/>
</filter>
<linearGradient id="paint0_linear_24_145" x1="341" y1="64.3925" x2="3.70323e-05" y2="64.3925" gradientUnits="userSpaceOnUse">
<stop stop-color="#31B0B0"/>
<stop offset="1" stop-color="white"/>
</linearGradient>
</defs>
</svg>
