<svg width="402" height="402" viewBox="0 0 402 402" fill="none" xmlns="http://www.w3.org/2000/svg">
<path d="M301.806 301.561C246.883 356.484 157.874 356.676 102.178 302.304C152.995 351.814 233.617 352.112 283.066 302.664C332.922 252.808 332.209 171.261 281.474 120.526C230.738 69.7904 149.192 69.078 99.3362 118.934C49.8872 168.383 50.1854 249.006 99.6967 299.822C45.3234 244.126 45.5156 155.117 100.439 100.194C155.774 44.8582 245.71 45.0774 301.316 100.683C356.922 156.289 357.142 246.225 301.806 301.561Z" fill="#31B0B0" fill-opacity="0.95"/>
<path d="M263.957 301.194C218.971 346.18 146.035 346.18 101.05 301.195C56.0643 256.209 56.0646 183.273 101.051 138.288C146.036 93.3018 218.972 93.3015 263.958 138.287C308.943 183.272 308.943 256.208 263.957 301.194ZM251.063 301.194C292.489 259.769 292.489 192.605 251.064 151.181C209.639 109.756 142.476 109.756 101.051 151.181C59.6252 192.607 59.6248 259.77 101.05 301.195C142.475 342.62 209.638 342.62 251.063 301.194Z" fill="#40DBDB" fill-opacity="0.95"/>
<path d="M236.644 301.071C200.316 337.398 142.111 338.512 104.442 304.413C139.463 335.996 193.483 334.924 227.212 301.194C262.051 266.356 262.05 209.871 227.212 175.033C192.373 140.195 135.889 140.195 101.051 175.033C66.2338 209.85 66.2136 266.287 100.989 301.13C100.969 301.11 100.949 301.091 100.929 301.071C63.4522 263.595 63.4522 202.833 100.929 165.356C138.405 127.88 199.167 127.88 236.644 165.356C274.12 202.833 274.12 263.595 236.644 301.071Z" fill="#82EBEB" fill-opacity="0.95"/>
<path d="M219.496 302.541C187.025 335.011 134.379 335.011 101.909 302.54C69.4381 270.07 69.4381 217.424 101.909 184.954C134.379 152.483 187.025 152.483 219.496 184.954C251.966 217.424 251.966 270.07 219.496 302.541ZM218.025 287.842C246.708 259.16 246.708 212.656 218.025 183.974C189.343 155.291 142.839 155.291 114.157 183.974C85.4747 212.656 85.4752 259.159 114.157 287.842C142.84 316.524 189.343 316.525 218.025 287.842Z" fill="#31B0B0" fill-opacity="0.95"/>
<path d="M219.373 272.287C195.358 296.301 156.422 296.301 132.407 272.286C108.393 248.271 108.393 209.336 132.407 185.321C151.981 165.748 181.466 162.128 204.706 174.461C186.229 165.454 163.314 168.624 147.964 183.974C128.617 203.321 128.616 234.689 147.963 254.036C167.31 273.383 198.679 273.383 218.026 254.036C237.16 234.901 237.37 204.009 218.656 184.616C218.896 184.849 219.135 185.083 219.373 185.321C243.387 209.336 243.387 248.272 219.373 272.287Z" fill="#248888" fill-opacity="0.95"/>
<path d="M217.068 183.061C206.055 173.025 188.985 173.329 178.34 183.974C167.381 194.933 167.381 212.701 178.339 223.66C189.298 234.619 207.067 234.619 218.026 223.66C228.963 212.722 228.983 195.001 218.087 184.038C218.107 184.058 218.128 184.077 218.148 184.097C233.368 199.318 233.368 223.995 218.148 239.215C202.927 254.436 178.249 254.437 163.029 239.216C147.808 223.995 147.808 199.317 163.029 184.096C177.895 169.23 201.782 168.887 217.068 183.061Z" fill="#176161" fill-opacity="0.95"/>
<path d="M218.148 211.779C210.504 219.423 198.11 219.423 190.466 211.779C182.822 204.135 182.822 191.741 190.466 184.097C198.025 176.538 210.228 176.454 217.89 183.845C212.8 179.024 204.764 179.109 199.776 184.097C194.702 189.17 194.702 197.396 199.775 202.47C204.849 207.543 213.075 207.543 218.149 202.47C223.136 197.482 223.22 189.447 218.401 184.356C225.79 192.019 225.707 204.22 218.148 211.779Z" fill="#0B3D3D" fill-opacity="0.95"/>
<g filter="url(#filter0_d_54_1465)">
<ellipse cx="59.0686" cy="22.5188" rx="59.0686" ry="22.5188" transform="matrix(0.707107 -0.707107 -0.707107 -0.707107 133.265 300.581)" fill="url(#paint0_linear_54_1465)"/>
</g>
<defs>
<filter id="filter0_d_54_1465" x="110.397" y="198.178" width="97.4238" height="97.4248" filterUnits="userSpaceOnUse" color-interpolation-filters="sRGB">
<feFlood flood-opacity="0" result="BackgroundImageFix"/>
<feColorMatrix in="SourceAlpha" type="matrix" values="0 0 0 0 0 0 0 0 0 0 0 0 0 0 0 0 0 0 127 0" result="hardAlpha"/>
<feOffset dy="4"/>
<feGaussianBlur stdDeviation="2"/>
<feComposite in2="hardAlpha" operator="out"/>
<feColorMatrix type="matrix" values="0 0 0 0 0 0 0 0 0 0 0 0 0 0 0 0 0 0 0.25 0"/>
<feBlend mode="normal" in2="BackgroundImageFix" result="effect1_dropShadow_54_1465"/>
<feBlend mode="normal" in="SourceGraphic" in2="effect1_dropShadow_54_1465" result="shape"/>
</filter>
<linearGradient id="paint0_linear_54_1465" x1="118.137" y1="22.3084" x2="1.28296e-05" y2="22.3084" gradientUnits="userSpaceOnUse">
<stop stop-color="#31B0B0"/>
<stop offset="1" stop-color="white"/>
</linearGradient>
</defs>
</svg>
